Coordinates
version=1
nRows=22
nColumns=24
inDegrees=yes

Units are S.I. units (second, meters, Newtons, ...)
Angles are in degrees.

endheader
time	pelvis_tilt	pelvis_list	pelvis_rotation	pelvis_tx	pelvis_ty	pelvis_tz	hip_flexion_r	hip_adduction_r	hip_rotation_r	knee_angle_r	ankle_angle_r	subtalar_angle_r	mtp_angle_r	hip_flexion_l	hip_adduction_l	hip_rotation_l	knee_angle_l	ankle_angle_l	subtalar_angle_l	mtp_angle_l	lumbar_extension	lumbar_bending	lumbar_rotation
      1.14150000	     -1.89906535	      6.01909696	      0.10676526	      0.12621256	      0.99463747	      0.28686474	     24.78087792	     -6.42901926	     -1.11072412	    -71.31809653	     -0.35839190	    -13.00462370	     -2.28387991	      9.09319718	     10.96805933	      1.83886113	    -10.89278524	      3.26410343	     -9.68895324	      0.02827142	     -0.99639527	     -3.63315448	      2.57525687
      1.14566667	     -1.88051986	      5.88699191	      0.11957920	      0.13127980	      0.99536843	      0.28678332	     25.27348275	     -6.23507851	     -1.02390809	    -70.93791398	      0.35411080	    -13.20390291	     -2.29878921	      8.54964310	     10.83671688	      1.98265429	    -10.52989054	      3.30731427	     -9.70901055	      0.01711215	     -1.06425223	     -3.46093498	      2.52804865
      1.14983333	     -1.86067266	      5.74623621	      0.13759887	      0.13638030	      0.99608246	      0.28670513	     25.73542444	     -6.03750749	     -0.95357089	    -70.48292969	      1.05585478	    -13.40395236	     -2.31191446	      7.99933648	     10.69494055	      2.12684282	    -10.15950431	      3.36016337	     -9.74078867	      0.00585797	     -1.10797062	     -3.28727340	      2.47611801
      1.15400000	     -1.79556395	      5.63837228	      0.15006890	      0.14146865	      0.99681170	      0.28660527	     26.13606917	     -5.88135798	     -0.87321103	    -69.97712097	      1.71276655	    -13.61795468	     -2.39180548	      7.36627061	     10.59847029	      2.38514040	     -9.71475682	      3.33249986	     -9.95548382	     -0.04245882	     -1.23217760	     -3.15126112	      2.36633806
      1.15816667	     -1.79173484	      5.49714770	      0.17169172	      0.14652374	      0.99741868	      0.28655353	     26.57974982	     -5.67950423	     -0.79848458	    -69.40142704	      2.40152935	    -13.74581948	     -2.41098685	      6.85990126	     10.45200727	      2.52755592	     -9.39124923	      3.41729857	     -9.96533821	     -0.05781238	     -1.27336698	     -2.98821246	      2.32862949
      1.16233333	     -1.73588388	      5.39185475	      0.18543135	      0.15159426	      0.99802651	      0.28646837	     26.95601851	     -5.53276417	     -0.72791867	    -68.78604633	      3.07175571	    -13.88603280	     -2.46256508	      6.26533371	     10.34954918	      2.72334382	     -8.99959894	      3.46717523	    -10.07862615	     -0.09342116	     -1.38073583	     -2.84702407	      2.24528675
      1.16650000	     -1.71496200	      5.25804616	      0.20743304	      0.15666312	      0.99858150	      0.28640373	     27.33865336	     -5.35031523	     -0.66491382	    -68.08947717	      3.70901299	    -13.98707890	     -2.51780158	      5.72499371	     10.21321246	      2.91384926	     -8.64115412	      3.51332219	    -10.18236222	     -0.13226479	     -1.44279830	     -2.68189865	      2.17493264
      1.17066667	     -1.71563380	      5.10649282	      0.23529771	      0.16170593	      0.99906246	      0.28636000	     27.72096626	     -5.14574914	     -0.60712198	    -67.32440983	      4.30836890	    -14.05714442	     -2.54248103	      5.23723153	     10.05147191	      3.05645062	     -8.33761796	      3.58386400	    -10.21957685	     -0.15254417	     -1.47696904	     -2.49909364	      2.12990971
      1.17483333	     -1.65521708	      4.99759068	      0.25215096	      0.16676706	      0.99956585	      0.28629898	     28.02519909	     -4.99740792	     -0.54463247	    -66.52349808	      4.91440126	    -14.13761808	     -2.60195039	      4.64665610	      9.94064588	      3.26282131	     -7.95838885	      3.63841361	    -10.35465869	     -0.19495133	     -1.59306129	     -2.36298458	      2.03624276
      1.17900000	     -1.68704480	      4.85742367	      0.28374775	      0.17178391	      0.99990262	      0.28626140	     28.40557730	     -4.80754319	     -0.48500473	    -65.65207595	      5.46432143	    -14.18488118	     -2.62854939	      4.20497018	      9.78920937	      3.40613152	     -7.67379086	      3.71528763	    -10.40222248	     -0.21631341	     -1.59342812	     -2.19310671	      1.99272609
      1.18316667	     -1.63452102	      4.75396410	      0.30412398	      0.17683496	      1.00030564	      0.28621163	     28.67752870	     -4.66900149	     -0.42832010	    -64.73941362	      5.99878245	    -14.25043025	     -2.70084814	      3.62820080	      9.68050154	      3.61957549	     -7.30304243	      3.77083608	    -10.54817075	     -0.26680686	     -1.70493532	     -2.06476122	      1.89050433
      1.18733333	     -1.63288139	      4.64178895	      0.33202337	      0.18185321	      1.00057916	      0.28618069	     28.98560109	     -4.51684650	     -0.37070951	    -63.77168657	      6.49761153	    -14.30196887	     -2.77263569	      3.13685249	      9.55848219	      3.79676372	     -6.98947020	      3.84640112	    -10.65253126	     -0.31633283	     -1.75072797	     -1.92972595	      1.81931173
      1.19150000	     -1.64619054	      4.53659126	      0.35905855	      0.18686342	      1.00077627	      0.28615288	     29.29297360	     -4.37341801	     -0.31249216	    -62.75551015	      6.95635885	    -14.35575553	     -2.84853517	      2.66805955	      9.44247053	      3.96073794	     -6.68665234	      3.93203810	    -10.74060043	     -0.36712532	     -1.78093679	     -1.80155077	      1.74806970
      1.19566667	     -1.64939810	      4.43376089	      0.38561620	      0.19187493	      1.00095352	      0.28614048	     29.56528889	     -4.23212994	     -0.25494285	    -61.68176667	      7.36856401	    -14.41790803	     -2.92970143	      2.18925937	      9.32607258	      4.11936745	     -6.38575863	      4.01862214	    -10.81557559	     -0.41984609	     -1.82573651	     -1.67765510	      1.67726619
      1.19983333	     -1.69030607	      4.32282027	      0.41999725	      0.19687481	      1.00105039	      0.28613842	     29.85467225	     -4.08329259	     -0.20527141	    -60.55075481	      7.74691419	    -14.46661257	     -2.96323535	      1.77547725	      9.19735003	      4.23362006	     -6.13160409	      4.12641919	    -10.83282030	     -0.44159927	     -1.82126857	     -1.54575746	      1.63780737
      1.20400000	     -1.69737545	      4.22613146	      0.44990613	      0.20187315	      1.00113150	      0.28614433	     30.08892761	     -3.95192086	     -0.15709959	    -59.37614457	      8.08892428	    -14.54284227	     -3.00408447	      1.31608245	      9.08372525	      4.36519512	     -5.85905344	      4.23859958	    -10.87047194	     -0.46670867	     -1.85916770	     -1.42905252	      1.57561996
      1.20816667	     -1.66458624	      4.16587035	      0.46414373	      0.20688602	      1.00120026	      0.28615337	     30.27003173	     -3.86022831	     -0.09547881	    -58.17220234	      8.35001083	    -14.65685003	     -3.09157822	      0.78660247	      9.00937189	      4.52517409	     -5.53124692	      4.32799416	    -10.95837688	     -0.51829792	     -1.95249259	     -1.36116825	      1.47533422
      1.21233333	     -1.69760210	      4.08669780	      0.49135285	      0.21188690	      1.00115827	      0.28616940	     30.49568054	     -3.75041701	     -0.04835809	    -56.91035818	      8.57900674	    -14.75573243	     -3.19046949	      0.35200287	      8.91256513	      4.66344300	     -5.25160980	      4.42899480	    -11.02265845	     -0.57517378	     -1.96657117	     -1.26663834	      1.40269258
      1.21650000	     -1.74469741	      4.01880599	      0.52023130	      0.21687290	      1.00102872	      0.28619335	     30.72264408	     -3.65645464	     -0.00722871	    -55.61745624	      8.79558491	    -14.80973639	     -3.24264909	     -0.04891281	      8.82590473	      4.75861629	     -5.00619418	      4.54827405	    -11.03314328	     -0.60392507	     -1.96186289	     -1.18881698	      1.36270590
      1.22066667	     -1.74076898	      3.96421538	      0.53457485	      0.22187562	      1.00093411	      0.28622440	     30.87227993	     -3.57230318	      0.04586110	    -54.27681164	      8.91167630	    -14.93836599	     -3.34181826	     -0.52762955	      8.75301433	      4.87652796	     -4.71665617	      4.66174052	    -11.06432911	     -0.65762528	     -2.02082935	     -1.12323374	      1.28468097
      1.22483333	     -1.76647590	      3.90547109	      0.55471389	      0.22687966	      1.00077035	      0.28626707	     31.03170247	     -3.48682868	      0.08600538	    -52.89394805	      9.00242508	    -15.03505847	     -3.43924895	     -0.96249319	      8.67398916	      4.97601873	     -4.45167967	      4.77962626	    -11.08101091	     -0.70959476	     -2.04215473	     -1.05182640	      1.22657657
      1.22900000	     -1.82755891	      3.85257434	      0.57806932	      0.23188634	      1.00051285	      0.28630401	     31.21225597	     -3.41490981	      0.11235227	    -51.48009761	      9.07100226	    -15.08726078	     -3.50184718	     -1.34791143	      8.60141760	      5.04957361	     -4.20962973	      4.90257312	    -11.08135461	     -0.74167053	     -2.02011787	     -0.98779188	      1.18832921
